<svg aria-hidden="true" style="position:absolute;width:0;height:0;overflow:hidden" xmlns="http://www.w3.org/2000/svg"><defs>

<symbol id="icon-btn-open" viewBox="0 0 32 32"><path fill="#7eb101" style="fill:var(--color1, #7eb101)" d="M2.667 8.001c0-.737.597-1.334 1.334-1.334h24.002a1.334 1.334 0 1 1 0 2.668H4.001a1.334 1.334 0 0 1-1.334-1.334zm0 8.043a1.335 1.335 0 0 1 1.334-1.333h24.002l.039-.001a1.334 1.334 0 1 1 0 2.668l-.041-.001h.002H4.001a1.334 1.334 0 0 1-1.334-1.334zM4 22.754a1.334 1.334 0 0 0-.002 2.666H28.002l.039.001a1.334 1.334 0 1 0 0-2.668l-.041.001h.002H4z"/></symbol>

<symbol id="icon-logo" viewBox="0 0 41 32"><path fill="#ffe550" style="fill:var(--color2, #ffe550)" d="M14.144 6.458c1.011-1.982 3.836-1.982 4.847 0l1.28 2.51a2.729 2.729 0 0 0 1.98 1.45l.016.002 2.773.442c2.197.35 3.07 3.05 1.497 4.626l-1.978 1.983a2.725 2.725 0 0 0-.763 2.372l-.002-.016.437 2.773c.346 2.2-1.94 3.868-3.92 2.859L17.8 24.181c-.358-.186-.783-.296-1.232-.296s-.874.109-1.248.303l.015-.007-2.511 1.278c-1.98 1.009-4.267-.659-3.92-2.859l.437-2.773a2.725 2.725 0 0 0-.765-2.356l-1.979-1.983c-1.572-1.576-.699-4.276 1.497-4.626l2.773-.441a2.728 2.728 0 0 0 1.989-1.438l.007-.015 1.28-2.51z"/><path fill="#2c2c2c" style="fill:var(--color3, #2c2c2c)" d="m1.116 20.361-.021.005a76.868 76.868 0 0 0-.013 1.932c0 .157-.004.285-.01.384l.001.336c0 .105-.007.207-.021.308l.001-.012-.018.206c-.014.13-.042.201-.084.211-.092.022-.235-.049-.431-.212-.197-.17-.31-.319-.34-.447s-.038-1.06-.023-2.798c.021-1.74-.026-2.884-.14-3.433a.412.412 0 0 1 .014-.274l-.001.003c.036-.166.219-.321.55-.467.339-.147.843-.3 1.514-.459.678-.16 1.216-.25 1.614-.27.405-.021.623.032.652.16.021.085-.025.159-.137.223s-.211.117-.298.16c.121-.039.006.008-.109.054l-.239.085c-.145.049-.279.096-.403.14-.126.037-.288.09-.488.16-.193.068-.372.133-.536.194-.166.054-.39.133-.671.237s-.463.17-.546.197c.012.02.023.05.033.093.079.332.122 1.131.129 2.392a10.72 10.72 0 0 0 1.402-.366c.498-.162.804-.257.917-.284.269-.063.416-.039.443.074.052.22-.212.476-.791.771a8.607 8.607 0 0 1-1.95.697zm6.917-1.951a2.018 2.018 0 0 0-.282-.66l.005.008c-.13-.201-.281-.334-.452-.398-.455.25-.787.729-.992 1.435-.201.698-.236 1.32-.108 1.865s.343.854.644.924c.485-.219.834-.668 1.046-1.347.218-.687.265-1.297.139-1.828zm-2.764.755c.117-.611.33-1.14.643-1.588.318-.457.684-.734 1.102-.833.423-.1.819-.003 1.187.291.366.287.611.689.732 1.206.121.51.121 1.063.001 1.66a3.783 3.783 0 0 1-.72 1.58l.006-.009c-.349.449-.767.731-1.254.846-.361.086-.7-.01-1.019-.286s-.538-.669-.659-1.179c-.123-.517-.129-1.08-.019-1.689zm7.565-1.892a2.018 2.018 0 0 0-.282-.66l.005.008c-.129-.201-.281-.334-.452-.398-.455.25-.786.728-.992 1.435-.201.699-.236 1.32-.107 1.865.129.546.343.854.643.925.486-.22.835-.668 1.047-1.347.218-.687.265-1.296.138-1.828zm-2.764.755c.117-.611.331-1.14.643-1.588.318-.457.684-.734 1.102-.833.423-.1.82-.004 1.188.291.366.287.61.689.732 1.206.121.51.121 1.063.001 1.66a3.78 3.78 0 0 1-.72 1.579l.006-.009c-.349.449-.767.731-1.254.847-.361.085-.7-.01-1.019-.286s-.539-.669-.659-1.179c-.122-.517-.129-1.08-.019-1.689zm7.771-6.987c.113-.027.276.047.489.221.218.165.349.34.392.524s.079.729.107 1.635c.026.899.031 1.836.015 2.812-.02 2.188-.111 3.301-.273 3.34-.098.023-.223-.011-.371-.103-.143-.101-.226-.197-.247-.289s-.041-.282-.057-.57c-.524.872-1.045 1.369-1.561 1.491-.311.074-.627-.001-.948-.225-.314-.225-.508-.489-.579-.794-.105-.439-.111-.987-.02-1.644a5.612 5.612 0 0 1 .651-1.929l-.015.028c.327-.601.742-.961 1.243-1.079.502-.119.923.099 1.263.654.006-1.587-.077-2.819-.247-3.699-.05-.212.002-.337.158-.374zm.068 5.491c-.091-.382-.234-.689-.431-.919-.188-.232-.375-.326-.559-.283-.303.072-.57.333-.799.783a4.56 4.56 0 0 0-.454 1.453l-.003.024c-.07.525-.063.964.021 1.318a.398.398 0 0 0 .208.275l.002.001a.493.493 0 0 0 .359.038l-.004.001c.276-.065.599-.351.972-.858a3.581 3.581 0 0 0 .696-1.646l.002-.135-.012-.052zm6.764-.637c.137.581-.009 1.131-.438 1.652a3.028 3.028 0 0 1-1.663 1.011c-.671.159-1.267.117-1.787-.127-.522-.25-.819-.532-.892-.843-.051-.212-.012-.334.115-.364.113-.027.375.09.788.352.156.09.352.163.589.219.244.055.486.054.726-.004a2.377 2.377 0 0 0 1.224-.693c.329-.347.457-.669.387-.966-.045-.191-.23-.406-.555-.643a7.357 7.357 0 0 0-1.004-.619l-.042-.02a8.232 8.232 0 0 1-1.061-.677l.021.015c-.326-.244-.511-.455-.553-.632a1.669 1.669 0 0 1-.027-.596l-.001.009c.024-.215.068-.379.13-.491.203-.37.564-.751 1.083-1.143.526-.394.987-.638 1.383-.731a.738.738 0 0 1 .57.081l-.003-.002c.174.101.278.226.313.374.017.071-.044.145-.182.223s-.351.188-.638.331a5.216 5.216 0 0 0-.757.433l.017-.011c-.739.505-1.074.901-1.005 1.191.037.156.553.494 1.548 1.013.414.221.77.474 1.091.767L24.046 15c.346.3.555.598.625.895zm2.433.534c.032.135.126.183.281.147.268-.064.575-.215.922-.454.351-.247.548-.377.591-.386.127-.03.207.022.239.156.048.206-.108.493-.468.862-.353.368-.703.593-1.049.675-.339.08-.644.055-.913-.075-.271-.138-.43-.306-.477-.505a2.988 2.988 0 0 1-.051-.783c.011-.332.035-.767.071-1.307.042-.548.07-1 .082-1.354-.314.156-.527.248-.64.274s-.239-.003-.379-.09c-.134-.095-.214-.196-.239-.302-.04-.17.381-.442 1.262-.815a7.711 7.711 0 0 0-.178-1.606c-.05-.212-.005-.335.137-.369.12-.028.287.015.5.129.212.106.34.255.385.447s.065.542.058 1.052c.394-.131.711-.225.951-.281.425-.101.658-.058.702.126.025.106-.071.222-.287.348-.209.124-.663.348-1.363.67-.016.595-.052 1.28-.107 2.056-.057.769-.067 1.231-.03 1.387zm4.735-5.562c.318-.075.649.018.995.281.343.255.547.513.608.775.06.255.034.538-.079.849.11.086.174.167.193.246.047.198.081.549.103 1.052.03.502.051.829.065.983.021.152.036.276.043.371.006.089.009.177.007.268.014.183-.029.287-.128.311-.127.03-.258-.055-.396-.254a3.191 3.191 0 0 1-.343-.838c-.44.949-.928 1.487-1.465 1.614-.325.077-.679.015-1.062-.186-.378-.209-.602-.463-.672-.761-.1-.425-.069-.986.095-1.683.173-.744.452-1.4.827-1.99l-.015.026c.379-.606.788-.96 1.225-1.065zm.93 1.754c-.156-.659-.364-.957-.626-.895-.275.065-.55.34-.823.823a5.777 5.777 0 0 0-.61 1.508l-.009.041c-.137.556-.171.979-.103 1.27a.373.373 0 0 0 .217.261l.002.001a.6.6 0 0 0 .374.023c.332-.079.654-.39.965-.935a3.83 3.83 0 0 0 .48-1.852c-.004-.111.041-.189.135-.234l-.002-.01z"/><path fill="#bbf330" style="fill:var(--color4, #bbf330)" d="M30.761 19.977a.913.913 0 0 0-.641.602c-1.906 5.65-7.245 9.72-13.536 9.72a14.222 14.222 0 0 1-9.841-3.934.91.91 0 0 0-.852-.231l.006-.001c-.639.158-.88.935-.406 1.392a15.868 15.868 0 0 0 11.073 4.481h.021-.001c7.078 0 13.082-4.606 15.183-10.987.206-.626-.368-1.199-1.006-1.041zM1.867 14.153a.907.907 0 0 0 .664-.719l.001-.005C3.743 6.764 9.572 1.708 16.584 1.708c4.559 0 8.618 2.137 11.233 5.465a.903.903 0 0 0 .923.328c.583-.145.847-.825.478-1.301C26.294 2.43 21.722.002 16.583.002 8.702.002 2.152 5.713.84 13.228c-.103.593.445 1.07 1.028.926zm38.752-8.819c-3.778 7.241-5.436 2.465-10.754 5.271.532-8.406 6.164-3.291 10.754-5.271z"/></symbol>

<symbol id="icon-btn-close" viewBox="0 0 30 32"><path d="m16.225 14.829 4.929-4.924a1.013 1.013 0 0 0-1.431-1.428l.001-.001-4.928 4.875-4.96-4.956a1.014 1.014 0 0 0-1.428 1.429l-.001-.002 4.949 5.007-4.848 4.783a1.013 1.013 0 1 0 1.429 1.431l.001-.001 4.837-4.833 4.807 4.802a1.014 1.014 0 0 0 1.428-1.429l.001.002-4.786-4.752z"/></symbol>

</defs></svg>